<mxfile host="app.diagrams.net" agent="Mozilla/5.0 (Windows NT 10.0; Win64; x64) AppleWebKit/537.36 (KHTML, like Gecko) Chrome/130.0.0.0 Safari/537.36" version="24.8.3">
  <diagram name="PÃ¡gina-1" id="iNefPiDeaZyFKO4GOJpb">
    <mxGraphModel dx="2140" dy="653" grid="1" gridSize="10" guides="1" tooltips="1" connect="1" arrows="1" fold="1" page="1" pageScale="1" pageWidth="827" pageHeight="1169" math="0" shadow="0">
      <root>
        <mxCell id="0" />
        <mxCell id="1" parent="0" />
        <mxCell id="RzLGPy--Rjvrpz-opvB2-1" value="Dashboard venta de servicio" style="rounded=0;whiteSpace=wrap;html=1;fillColor=#dae8fc;strokeColor=#6c8ebf;" vertex="1" parent="1">
          <mxGeometry x="-212.5" y="60" width="125" height="60" as="geometry" />
        </mxCell>
        <mxCell id="RzLGPy--Rjvrpz-opvB2-77" style="edgeStyle=orthogonalEdgeStyle;rounded=0;orthogonalLoop=1;jettySize=auto;html=1;exitX=1;exitY=0.5;exitDx=0;exitDy=0;entryX=0;entryY=0.5;entryDx=0;entryDy=0;" edge="1" parent="1" source="RzLGPy--Rjvrpz-opvB2-2" target="RzLGPy--Rjvrpz-opvB2-7">
          <mxGeometry relative="1" as="geometry" />
        </mxCell>
        <mxCell id="RzLGPy--Rjvrpz-opvB2-80" style="edgeStyle=orthogonalEdgeStyle;rounded=0;orthogonalLoop=1;jettySize=auto;html=1;exitX=0.5;exitY=0;exitDx=0;exitDy=0;entryX=0.5;entryY=1;entryDx=0;entryDy=0;" edge="1" parent="1" source="RzLGPy--Rjvrpz-opvB2-2" target="RzLGPy--Rjvrpz-opvB2-1">
          <mxGeometry relative="1" as="geometry" />
        </mxCell>
        <mxCell id="RzLGPy--Rjvrpz-opvB2-2" value="SERVTP_" style="rounded=0;whiteSpace=wrap;html=1;fillColor=#f8cecc;strokeColor=#b85450;" vertex="1" parent="1">
          <mxGeometry x="-205" y="220" width="110" height="30" as="geometry" />
        </mxCell>
        <mxCell id="RzLGPy--Rjvrpz-opvB2-3" value="SERVTP2_" style="rounded=0;whiteSpace=wrap;html=1;fillColor=#f8cecc;strokeColor=#b85450;" vertex="1" parent="1">
          <mxGeometry x="-460" y="305" width="110" height="30" as="geometry" />
        </mxCell>
        <mxCell id="RzLGPy--Rjvrpz-opvB2-4" value="Puntociudad2_" style="rounded=0;whiteSpace=wrap;html=1;fillColor=#f8cecc;strokeColor=#b85450;" vertex="1" parent="1">
          <mxGeometry x="-325" y="460" width="130" height="30" as="geometry" />
        </mxCell>
        <mxCell id="RzLGPy--Rjvrpz-opvB2-6" value="TicketPromOp_" style="rounded=0;whiteSpace=wrap;html=1;fillColor=#f8cecc;strokeColor=#b85450;" vertex="1" parent="1">
          <mxGeometry x="-550" y="115" width="120" height="30" as="geometry" />
        </mxCell>
        <mxCell id="RzLGPy--Rjvrpz-opvB2-7" value="FechaVentaUnica_" style="rounded=0;whiteSpace=wrap;html=1;fillColor=#f8cecc;strokeColor=#b85450;" vertex="1" parent="1">
          <mxGeometry x="165" y="220" width="120" height="30" as="geometry" />
        </mxCell>
        <mxCell id="RzLGPy--Rjvrpz-opvB2-10" value="Directorio_" style="rounded=0;whiteSpace=wrap;html=1;fillColor=#f8cecc;strokeColor=#b85450;" vertex="1" parent="1">
          <mxGeometry x="-185" y="420" width="120" height="30" as="geometry" />
        </mxCell>
        <mxCell id="RzLGPy--Rjvrpz-opvB2-32" style="edgeStyle=orthogonalEdgeStyle;rounded=0;orthogonalLoop=1;jettySize=auto;html=1;exitX=0.5;exitY=0;exitDx=0;exitDy=0;entryX=0.5;entryY=1;entryDx=0;entryDy=0;" edge="1" parent="1" source="RzLGPy--Rjvrpz-opvB2-13" target="RzLGPy--Rjvrpz-opvB2-3">
          <mxGeometry relative="1" as="geometry" />
        </mxCell>
        <mxCell id="RzLGPy--Rjvrpz-opvB2-13" value="SERVTP2" style="rounded=1;whiteSpace=wrap;html=1;fillColor=#fff2cc;strokeColor=#d6b656;" vertex="1" parent="1">
          <mxGeometry x="-530" y="400" width="110" height="30" as="geometry" />
        </mxCell>
        <mxCell id="RzLGPy--Rjvrpz-opvB2-33" style="edgeStyle=orthogonalEdgeStyle;rounded=0;orthogonalLoop=1;jettySize=auto;html=1;exitX=0.5;exitY=0;exitDx=0;exitDy=0;entryX=0.5;entryY=1;entryDx=0;entryDy=0;" edge="1" parent="1" source="RzLGPy--Rjvrpz-opvB2-16" target="RzLGPy--Rjvrpz-opvB2-3">
          <mxGeometry relative="1" as="geometry" />
        </mxCell>
        <mxCell id="RzLGPy--Rjvrpz-opvB2-16" value="DirectorioTO" style="rounded=1;whiteSpace=wrap;html=1;fillColor=#fff2cc;strokeColor=#d6b656;" vertex="1" parent="1">
          <mxGeometry x="-390" y="400" width="110" height="30" as="geometry" />
        </mxCell>
        <mxCell id="RzLGPy--Rjvrpz-opvB2-34" style="edgeStyle=orthogonalEdgeStyle;rounded=0;orthogonalLoop=1;jettySize=auto;html=1;exitX=0.5;exitY=0;exitDx=0;exitDy=0;entryX=0.5;entryY=1;entryDx=0;entryDy=0;" edge="1" parent="1" source="RzLGPy--Rjvrpz-opvB2-18" target="RzLGPy--Rjvrpz-opvB2-3">
          <mxGeometry relative="1" as="geometry" />
        </mxCell>
        <mxCell id="RzLGPy--Rjvrpz-opvB2-18" value="SERVTPCierre2" style="rounded=1;whiteSpace=wrap;html=1;fillColor=#fff2cc;strokeColor=#d6b656;" vertex="1" parent="1">
          <mxGeometry x="-460" y="450" width="110" height="30" as="geometry" />
        </mxCell>
        <mxCell id="RzLGPy--Rjvrpz-opvB2-38" style="edgeStyle=orthogonalEdgeStyle;rounded=0;orthogonalLoop=1;jettySize=auto;html=1;exitX=0.5;exitY=0;exitDx=0;exitDy=0;entryX=0.5;entryY=1;entryDx=0;entryDy=0;" edge="1" parent="1" source="RzLGPy--Rjvrpz-opvB2-19" target="RzLGPy--Rjvrpz-opvB2-4">
          <mxGeometry relative="1" as="geometry">
            <mxPoint x="-260" y="500" as="targetPoint" />
          </mxGeometry>
        </mxCell>
        <mxCell id="RzLGPy--Rjvrpz-opvB2-19" value="PuntoCiudad2" style="rounded=1;whiteSpace=wrap;html=1;fillColor=#fff2cc;strokeColor=#d6b656;" vertex="1" parent="1">
          <mxGeometry x="-380" y="550" width="110" height="30" as="geometry" />
        </mxCell>
        <mxCell id="RzLGPy--Rjvrpz-opvB2-39" style="edgeStyle=orthogonalEdgeStyle;rounded=0;orthogonalLoop=1;jettySize=auto;html=1;exitX=0.5;exitY=0;exitDx=0;exitDy=0;entryX=0.5;entryY=1;entryDx=0;entryDy=0;" edge="1" parent="1" source="RzLGPy--Rjvrpz-opvB2-20" target="RzLGPy--Rjvrpz-opvB2-4">
          <mxGeometry relative="1" as="geometry" />
        </mxCell>
        <mxCell id="RzLGPy--Rjvrpz-opvB2-20" value="Directorio_" style="rounded=0;whiteSpace=wrap;html=1;fillColor=#f8cecc;strokeColor=#b85450;" vertex="1" parent="1">
          <mxGeometry x="-250" y="550" width="100" height="30" as="geometry" />
        </mxCell>
        <mxCell id="RzLGPy--Rjvrpz-opvB2-40" style="edgeStyle=orthogonalEdgeStyle;rounded=0;orthogonalLoop=1;jettySize=auto;html=1;exitX=0.5;exitY=0;exitDx=0;exitDy=0;entryX=0.5;entryY=1;entryDx=0;entryDy=0;" edge="1" parent="1" source="RzLGPy--Rjvrpz-opvB2-21" target="RzLGPy--Rjvrpz-opvB2-10">
          <mxGeometry relative="1" as="geometry" />
        </mxCell>
        <mxCell id="RzLGPy--Rjvrpz-opvB2-21" value="Directorio2" style="rounded=1;whiteSpace=wrap;html=1;fillColor=#d5e8d4;strokeColor=#82b366;" vertex="1" parent="1">
          <mxGeometry x="-180" y="480" width="110" height="30" as="geometry" />
        </mxCell>
        <mxCell id="RzLGPy--Rjvrpz-opvB2-79" style="edgeStyle=orthogonalEdgeStyle;rounded=0;orthogonalLoop=1;jettySize=auto;html=1;exitX=0;exitY=0.5;exitDx=0;exitDy=0;entryX=1;entryY=1;entryDx=0;entryDy=0;" edge="1" parent="1" source="RzLGPy--Rjvrpz-opvB2-22" target="RzLGPy--Rjvrpz-opvB2-2">
          <mxGeometry relative="1" as="geometry" />
        </mxCell>
        <mxCell id="RzLGPy--Rjvrpz-opvB2-22" value="Zonales2" style="rounded=1;whiteSpace=wrap;html=1;fillColor=#fff2cc;strokeColor=#d6b656;" vertex="1" parent="1">
          <mxGeometry x="-10" y="260" width="110" height="30" as="geometry" />
        </mxCell>
        <mxCell id="RzLGPy--Rjvrpz-opvB2-24" value="TicketPromNal_" style="rounded=0;whiteSpace=wrap;html=1;fillColor=#f8cecc;strokeColor=#b85450;" vertex="1" parent="1">
          <mxGeometry x="-380" y="115" width="110" height="30" as="geometry" />
        </mxCell>
        <mxCell id="RzLGPy--Rjvrpz-opvB2-29" style="edgeStyle=orthogonalEdgeStyle;rounded=0;orthogonalLoop=1;jettySize=auto;html=1;exitX=0.5;exitY=0;exitDx=0;exitDy=0;entryX=0.5;entryY=1;entryDx=0;entryDy=0;" edge="1" parent="1" source="RzLGPy--Rjvrpz-opvB2-25" target="RzLGPy--Rjvrpz-opvB2-6">
          <mxGeometry relative="1" as="geometry" />
        </mxCell>
        <mxCell id="RzLGPy--Rjvrpz-opvB2-30" style="edgeStyle=orthogonalEdgeStyle;rounded=0;orthogonalLoop=1;jettySize=auto;html=1;exitX=0.5;exitY=0;exitDx=0;exitDy=0;entryX=0.5;entryY=1;entryDx=0;entryDy=0;" edge="1" parent="1" source="RzLGPy--Rjvrpz-opvB2-25" target="RzLGPy--Rjvrpz-opvB2-24">
          <mxGeometry relative="1" as="geometry">
            <mxPoint x="-340" y="175" as="targetPoint" />
          </mxGeometry>
        </mxCell>
        <mxCell id="RzLGPy--Rjvrpz-opvB2-35" style="edgeStyle=orthogonalEdgeStyle;rounded=0;orthogonalLoop=1;jettySize=auto;html=1;exitX=1;exitY=0.5;exitDx=0;exitDy=0;entryX=0;entryY=0.5;entryDx=0;entryDy=0;" edge="1" parent="1" source="RzLGPy--Rjvrpz-opvB2-25" target="RzLGPy--Rjvrpz-opvB2-2">
          <mxGeometry relative="1" as="geometry" />
        </mxCell>
        <mxCell id="RzLGPy--Rjvrpz-opvB2-25" value="TicketPromDist_" style="rounded=0;whiteSpace=wrap;html=1;fillColor=#f8cecc;strokeColor=#b85450;" vertex="1" parent="1">
          <mxGeometry x="-460" y="220" width="110" height="30" as="geometry" />
        </mxCell>
        <mxCell id="RzLGPy--Rjvrpz-opvB2-28" style="edgeStyle=orthogonalEdgeStyle;rounded=0;orthogonalLoop=1;jettySize=auto;html=1;exitX=0.5;exitY=0;exitDx=0;exitDy=0;entryX=0.5;entryY=1;entryDx=0;entryDy=0;" edge="1" parent="1" target="RzLGPy--Rjvrpz-opvB2-25">
          <mxGeometry relative="1" as="geometry">
            <mxPoint x="-405" y="305" as="sourcePoint" />
          </mxGeometry>
        </mxCell>
        <mxCell id="RzLGPy--Rjvrpz-opvB2-36" style="edgeStyle=orthogonalEdgeStyle;rounded=0;orthogonalLoop=1;jettySize=auto;html=1;exitX=1;exitY=0.75;exitDx=0;exitDy=0;entryX=0;entryY=1;entryDx=0;entryDy=0;" edge="1" parent="1" source="RzLGPy--Rjvrpz-opvB2-3" target="RzLGPy--Rjvrpz-opvB2-2">
          <mxGeometry relative="1" as="geometry">
            <mxPoint x="-197" y="254" as="targetPoint" />
          </mxGeometry>
        </mxCell>
        <mxCell id="RzLGPy--Rjvrpz-opvB2-37" style="edgeStyle=orthogonalEdgeStyle;rounded=0;orthogonalLoop=1;jettySize=auto;html=1;exitX=0.5;exitY=0;exitDx=0;exitDy=0;" edge="1" parent="1" source="RzLGPy--Rjvrpz-opvB2-4">
          <mxGeometry relative="1" as="geometry">
            <mxPoint x="-170" y="260" as="targetPoint" />
          </mxGeometry>
        </mxCell>
        <mxCell id="RzLGPy--Rjvrpz-opvB2-42" style="edgeStyle=orthogonalEdgeStyle;rounded=0;orthogonalLoop=1;jettySize=auto;html=1;exitX=0.5;exitY=0;exitDx=0;exitDy=0;" edge="1" parent="1" source="RzLGPy--Rjvrpz-opvB2-10">
          <mxGeometry relative="1" as="geometry">
            <mxPoint x="-125" y="260" as="targetPoint" />
          </mxGeometry>
        </mxCell>
        <mxCell id="RzLGPy--Rjvrpz-opvB2-76" style="edgeStyle=orthogonalEdgeStyle;rounded=0;orthogonalLoop=1;jettySize=auto;html=1;exitX=0.5;exitY=0;exitDx=0;exitDy=0;entryX=0.5;entryY=1;entryDx=0;entryDy=0;" edge="1" parent="1" source="RzLGPy--Rjvrpz-opvB2-48" target="RzLGPy--Rjvrpz-opvB2-7">
          <mxGeometry relative="1" as="geometry" />
        </mxCell>
        <mxCell id="RzLGPy--Rjvrpz-opvB2-48" value="RETAIL_" style="rounded=0;whiteSpace=wrap;html=1;fillColor=#f8cecc;strokeColor=#b85450;" vertex="1" parent="1">
          <mxGeometry x="165" y="320" width="120" height="30" as="geometry" />
        </mxCell>
        <mxCell id="RzLGPy--Rjvrpz-opvB2-73" style="edgeStyle=orthogonalEdgeStyle;rounded=0;orthogonalLoop=1;jettySize=auto;html=1;exitX=0.5;exitY=0;exitDx=0;exitDy=0;entryX=0;entryY=0.5;entryDx=0;entryDy=0;" edge="1" parent="1" source="RzLGPy--Rjvrpz-opvB2-49" target="RzLGPy--Rjvrpz-opvB2-48">
          <mxGeometry relative="1" as="geometry" />
        </mxCell>
        <mxCell id="RzLGPy--Rjvrpz-opvB2-49" value="RETAIL2_" style="rounded=0;whiteSpace=wrap;html=1;fillColor=#f8cecc;strokeColor=#b85450;" vertex="1" parent="1">
          <mxGeometry x="30" y="380" width="120" height="30" as="geometry" />
        </mxCell>
        <mxCell id="RzLGPy--Rjvrpz-opvB2-72" style="edgeStyle=orthogonalEdgeStyle;rounded=0;orthogonalLoop=1;jettySize=auto;html=1;exitX=1;exitY=0.5;exitDx=0;exitDy=0;" edge="1" parent="1" source="RzLGPy--Rjvrpz-opvB2-51" target="RzLGPy--Rjvrpz-opvB2-48">
          <mxGeometry relative="1" as="geometry" />
        </mxCell>
        <mxCell id="RzLGPy--Rjvrpz-opvB2-51" value="Demos2" style="rounded=0;whiteSpace=wrap;html=1;fillColor=#fff2cc;strokeColor=#d6b656;" vertex="1" parent="1">
          <mxGeometry x="-65" y="320" width="120" height="30" as="geometry" />
        </mxCell>
        <mxCell id="RzLGPy--Rjvrpz-opvB2-53" style="edgeStyle=orthogonalEdgeStyle;rounded=0;orthogonalLoop=1;jettySize=auto;html=1;exitX=0.5;exitY=0;exitDx=0;exitDy=0;entryX=0.5;entryY=1;entryDx=0;entryDy=0;" edge="1" parent="1" source="RzLGPy--Rjvrpz-opvB2-52" target="RzLGPy--Rjvrpz-opvB2-49">
          <mxGeometry relative="1" as="geometry" />
        </mxCell>
        <mxCell id="RzLGPy--Rjvrpz-opvB2-52" value="RETAIL2" style="rounded=0;whiteSpace=wrap;html=1;fillColor=#fff2cc;strokeColor=#d6b656;" vertex="1" parent="1">
          <mxGeometry x="30" y="450" width="120" height="30" as="geometry" />
        </mxCell>
        <mxCell id="RzLGPy--Rjvrpz-opvB2-75" style="edgeStyle=orthogonalEdgeStyle;rounded=0;orthogonalLoop=1;jettySize=auto;html=1;exitX=0;exitY=0.5;exitDx=0;exitDy=0;" edge="1" parent="1" source="RzLGPy--Rjvrpz-opvB2-55" target="RzLGPy--Rjvrpz-opvB2-48">
          <mxGeometry relative="1" as="geometry" />
        </mxCell>
        <mxCell id="RzLGPy--Rjvrpz-opvB2-55" value="VTANUECons_" style="rounded=0;whiteSpace=wrap;html=1;fillColor=#f8cecc;strokeColor=#b85450;" vertex="1" parent="1">
          <mxGeometry x="345" y="320" width="120" height="30" as="geometry" />
        </mxCell>
        <mxCell id="RzLGPy--Rjvrpz-opvB2-65" style="edgeStyle=orthogonalEdgeStyle;rounded=0;orthogonalLoop=1;jettySize=auto;html=1;exitX=0.5;exitY=0;exitDx=0;exitDy=0;entryX=0.5;entryY=1;entryDx=0;entryDy=0;" edge="1" parent="1" source="RzLGPy--Rjvrpz-opvB2-56" target="RzLGPy--Rjvrpz-opvB2-55">
          <mxGeometry relative="1" as="geometry" />
        </mxCell>
        <mxCell id="RzLGPy--Rjvrpz-opvB2-56" value="RetailBase_" style="rounded=0;whiteSpace=wrap;html=1;fillColor=#f8cecc;strokeColor=#b85450;" vertex="1" parent="1">
          <mxGeometry x="345" y="430" width="120" height="30" as="geometry" />
        </mxCell>
        <mxCell id="RzLGPy--Rjvrpz-opvB2-57" value="RETAIL2" style="rounded=0;whiteSpace=wrap;html=1;fillColor=#fff2cc;strokeColor=#d6b656;" vertex="1" parent="1">
          <mxGeometry x="330" y="560" width="70" height="30" as="geometry" />
        </mxCell>
        <mxCell id="RzLGPy--Rjvrpz-opvB2-63" style="edgeStyle=orthogonalEdgeStyle;rounded=0;orthogonalLoop=1;jettySize=auto;html=1;exitX=0.5;exitY=0;exitDx=0;exitDy=0;entryX=0.575;entryY=1.04;entryDx=0;entryDy=0;entryPerimeter=0;" edge="1" parent="1" source="RzLGPy--Rjvrpz-opvB2-58" target="RzLGPy--Rjvrpz-opvB2-56">
          <mxGeometry relative="1" as="geometry">
            <mxPoint x="415" y="470" as="targetPoint" />
          </mxGeometry>
        </mxCell>
        <mxCell id="RzLGPy--Rjvrpz-opvB2-58" value="Demos2" style="rounded=0;whiteSpace=wrap;html=1;fillColor=#fff2cc;strokeColor=#d6b656;" vertex="1" parent="1">
          <mxGeometry x="405" y="560" width="70" height="30" as="geometry" />
        </mxCell>
        <mxCell id="RzLGPy--Rjvrpz-opvB2-64" style="edgeStyle=orthogonalEdgeStyle;rounded=0;orthogonalLoop=1;jettySize=auto;html=1;exitX=0.5;exitY=0;exitDx=0;exitDy=0;entryX=1;entryY=0.5;entryDx=0;entryDy=0;" edge="1" parent="1" source="RzLGPy--Rjvrpz-opvB2-59" target="RzLGPy--Rjvrpz-opvB2-56">
          <mxGeometry relative="1" as="geometry" />
        </mxCell>
        <mxCell id="RzLGPy--Rjvrpz-opvB2-59" value="DirectorioTO" style="rounded=1;whiteSpace=wrap;html=1;fillColor=#fff2cc;strokeColor=#d6b656;" vertex="1" parent="1">
          <mxGeometry x="455" y="510" width="90" height="30" as="geometry" />
        </mxCell>
        <mxCell id="RzLGPy--Rjvrpz-opvB2-61" style="edgeStyle=orthogonalEdgeStyle;rounded=0;orthogonalLoop=1;jettySize=auto;html=1;exitX=0.5;exitY=0;exitDx=0;exitDy=0;entryX=0;entryY=0.5;entryDx=0;entryDy=0;" edge="1" parent="1" source="RzLGPy--Rjvrpz-opvB2-60" target="RzLGPy--Rjvrpz-opvB2-56">
          <mxGeometry relative="1" as="geometry" />
        </mxCell>
        <mxCell id="RzLGPy--Rjvrpz-opvB2-60" value="RetailManual_" style="rounded=0;whiteSpace=wrap;html=1;fillColor=#fff2cc;strokeColor=#d6b656;" vertex="1" parent="1">
          <mxGeometry x="255" y="510" width="95" height="30" as="geometry" />
        </mxCell>
        <mxCell id="RzLGPy--Rjvrpz-opvB2-62" style="edgeStyle=orthogonalEdgeStyle;rounded=0;orthogonalLoop=1;jettySize=auto;html=1;exitX=0.5;exitY=0;exitDx=0;exitDy=0;" edge="1" parent="1" source="RzLGPy--Rjvrpz-opvB2-57">
          <mxGeometry relative="1" as="geometry">
            <mxPoint x="385" y="464" as="targetPoint" />
          </mxGeometry>
        </mxCell>
        <mxCell id="RzLGPy--Rjvrpz-opvB2-74" style="edgeStyle=orthogonalEdgeStyle;rounded=0;orthogonalLoop=1;jettySize=auto;html=1;exitX=0.5;exitY=0;exitDx=0;exitDy=0;entryX=0.5;entryY=1;entryDx=0;entryDy=0;" edge="1" parent="1" source="RzLGPy--Rjvrpz-opvB2-66" target="RzLGPy--Rjvrpz-opvB2-48">
          <mxGeometry relative="1" as="geometry" />
        </mxCell>
        <mxCell id="RzLGPy--Rjvrpz-opvB2-66" value="Directorio_" style="rounded=0;whiteSpace=wrap;html=1;fillColor=#f8cecc;strokeColor=#b85450;" vertex="1" parent="1">
          <mxGeometry x="165" y="380" width="120" height="30" as="geometry" />
        </mxCell>
        <mxCell id="RzLGPy--Rjvrpz-opvB2-67" style="edgeStyle=orthogonalEdgeStyle;rounded=0;orthogonalLoop=1;jettySize=auto;html=1;exitX=0.5;exitY=0;exitDx=0;exitDy=0;entryX=0.5;entryY=1;entryDx=0;entryDy=0;" edge="1" parent="1" source="RzLGPy--Rjvrpz-opvB2-68" target="RzLGPy--Rjvrpz-opvB2-66">
          <mxGeometry relative="1" as="geometry" />
        </mxCell>
        <mxCell id="RzLGPy--Rjvrpz-opvB2-68" value="Directorio2" style="rounded=1;whiteSpace=wrap;html=1;fillColor=#d5e8d4;strokeColor=#82b366;" vertex="1" parent="1">
          <mxGeometry x="170" y="440" width="110" height="30" as="geometry" />
        </mxCell>
      </root>
    </mxGraphModel>
  </diagram>
</mxfile>
